<mxfile host="app.diagrams.net" agent="Mozilla/5.0 (Windows NT 10.0; Win64; x64) AppleWebKit/537.36 (KHTML, like Gecko) Chrome/133.0.0.0 Safari/537.36 Edg/133.0.0.0" version="26.0.14">
  <diagram name="第 1 页" id="7mDxfHYB2dJISBUOMJiG">
    <mxGraphModel dx="1046" dy="630" grid="1" gridSize="10" guides="1" tooltips="1" connect="1" arrows="1" fold="1" page="1" pageScale="1" pageWidth="827" pageHeight="1169" math="0" shadow="0">
      <root>
        <mxCell id="0" />
        <mxCell id="1" parent="0" />
        <mxCell id="KR5ezrJEU1Oejk-ibgOq-42" value="" style="rounded=1;whiteSpace=wrap;html=1;fillColor=#F5F5DC;strokeColor=none;" vertex="1" parent="1">
          <mxGeometry x="50" y="120" width="560" height="670" as="geometry" />
        </mxCell>
        <mxCell id="KR5ezrJEU1Oejk-ibgOq-5" value="" style="edgeStyle=orthogonalEdgeStyle;rounded=0;orthogonalLoop=1;jettySize=auto;html=1;" edge="1" parent="1" source="KR5ezrJEU1Oejk-ibgOq-1" target="KR5ezrJEU1Oejk-ibgOq-4">
          <mxGeometry relative="1" as="geometry" />
        </mxCell>
        <mxCell id="KR5ezrJEU1Oejk-ibgOq-47" value="" style="edgeStyle=orthogonalEdgeStyle;rounded=0;orthogonalLoop=1;jettySize=auto;html=1;" edge="1" parent="1" source="KR5ezrJEU1Oejk-ibgOq-1" target="KR5ezrJEU1Oejk-ibgOq-43">
          <mxGeometry relative="1" as="geometry" />
        </mxCell>
        <mxCell id="KR5ezrJEU1Oejk-ibgOq-1" value="&lt;span style=&quot;font-family: &amp;quot;Times New Roman&amp;quot;; font-size: 18px;&quot;&gt;Population&lt;/span&gt;" style="rounded=1;whiteSpace=wrap;html=1;fillColor=#ffe6cc;strokeColor=#d79b00;" vertex="1" parent="1">
          <mxGeometry x="285" y="160" width="120" height="60" as="geometry" />
        </mxCell>
        <mxCell id="KR5ezrJEU1Oejk-ibgOq-7" style="edgeStyle=orthogonalEdgeStyle;rounded=0;orthogonalLoop=1;jettySize=auto;html=1;exitX=0.5;exitY=1;exitDx=0;exitDy=0;entryX=0.5;entryY=0;entryDx=0;entryDy=0;" edge="1" parent="1" source="KR5ezrJEU1Oejk-ibgOq-4" target="KR5ezrJEU1Oejk-ibgOq-6">
          <mxGeometry relative="1" as="geometry" />
        </mxCell>
        <mxCell id="KR5ezrJEU1Oejk-ibgOq-4" value="&lt;font style=&quot;font-size: 18px;&quot; face=&quot;Times New Roman&quot;&gt;State&lt;/font&gt;" style="ellipse;whiteSpace=wrap;html=1;aspect=fixed;fillColor=#dae8fc;strokeColor=#6c8ebf;" vertex="1" parent="1">
          <mxGeometry x="475" y="165" width="50" height="50" as="geometry" />
        </mxCell>
        <mxCell id="KR5ezrJEU1Oejk-ibgOq-11" value="" style="edgeStyle=orthogonalEdgeStyle;rounded=0;orthogonalLoop=1;jettySize=auto;html=1;" edge="1" parent="1" source="KR5ezrJEU1Oejk-ibgOq-6" target="KR5ezrJEU1Oejk-ibgOq-10">
          <mxGeometry relative="1" as="geometry" />
        </mxCell>
        <mxCell id="KR5ezrJEU1Oejk-ibgOq-6" value="&lt;font style=&quot;font-size: 18px;&quot; face=&quot;Times New Roman&quot;&gt;Actor network&lt;/font&gt;" style="rounded=1;whiteSpace=wrap;html=1;fillColor=#dae8fc;strokeColor=#6c8ebf;" vertex="1" parent="1">
          <mxGeometry x="440" y="250" width="120" height="60" as="geometry" />
        </mxCell>
        <mxCell id="KR5ezrJEU1Oejk-ibgOq-55" style="edgeStyle=orthogonalEdgeStyle;rounded=0;orthogonalLoop=1;jettySize=auto;html=1;exitX=0;exitY=0.5;exitDx=0;exitDy=0;" edge="1" parent="1" source="KR5ezrJEU1Oejk-ibgOq-10">
          <mxGeometry relative="1" as="geometry">
            <mxPoint x="345" y="434.75" as="targetPoint" />
            <mxPoint x="470" y="434.75" as="sourcePoint" />
          </mxGeometry>
        </mxCell>
        <mxCell id="KR5ezrJEU1Oejk-ibgOq-10" value="&lt;font style=&quot;font-size: 18px;&quot; face=&quot;Times New Roman&quot;&gt;P&lt;/font&gt;" style="ellipse;whiteSpace=wrap;html=1;aspect=fixed;fillColor=#dae8fc;strokeColor=#6c8ebf;" vertex="1" parent="1">
          <mxGeometry x="475" y="410" width="50" height="50" as="geometry" />
        </mxCell>
        <mxCell id="KR5ezrJEU1Oejk-ibgOq-12" value="&lt;font style=&quot;font-size: 18px;&quot; face=&quot;Times New Roman&quot;&gt;Output Action P&lt;/font&gt;" style="text;html=1;align=center;verticalAlign=middle;whiteSpace=wrap;rounded=0;" vertex="1" parent="1">
          <mxGeometry x="500" y="330" width="90" height="30" as="geometry" />
        </mxCell>
        <mxCell id="KR5ezrJEU1Oejk-ibgOq-59" value="" style="edgeStyle=orthogonalEdgeStyle;rounded=0;orthogonalLoop=1;jettySize=auto;html=1;exitX=0.031;exitY=0.499;exitDx=0;exitDy=0;exitPerimeter=0;" edge="1" parent="1" source="KR5ezrJEU1Oejk-ibgOq-19">
          <mxGeometry relative="1" as="geometry">
            <mxPoint x="190" y="560" as="targetPoint" />
            <Array as="points">
              <mxPoint x="190" y="502" />
            </Array>
          </mxGeometry>
        </mxCell>
        <mxCell id="KR5ezrJEU1Oejk-ibgOq-61" value="" style="edgeStyle=orthogonalEdgeStyle;rounded=0;orthogonalLoop=1;jettySize=auto;html=1;" edge="1" parent="1" source="KR5ezrJEU1Oejk-ibgOq-19">
          <mxGeometry relative="1" as="geometry">
            <mxPoint x="500" y="560" as="targetPoint" />
            <Array as="points">
              <mxPoint x="500" y="503" />
            </Array>
          </mxGeometry>
        </mxCell>
        <mxCell id="KR5ezrJEU1Oejk-ibgOq-19" value="&lt;font face=&quot;Times New Roman&quot; style=&quot;font-size: 14px;&quot;&gt;&amp;nbsp;Is Individual in&amp;nbsp;&lt;/font&gt;&lt;div&gt;&lt;font face=&quot;Times New Roman&quot; style=&quot;font-size: 14px;&quot;&gt;Top P% of Fitness&lt;/font&gt;&lt;/div&gt;" style="rhombus;whiteSpace=wrap;html=1;fillColor=#ffe6cc;strokeColor=#d79b00;rounded=1;" vertex="1" parent="1">
          <mxGeometry x="277.5" y="450" width="135" height="105" as="geometry" />
        </mxCell>
        <mxCell id="KR5ezrJEU1Oejk-ibgOq-36" style="edgeStyle=orthogonalEdgeStyle;rounded=0;orthogonalLoop=1;jettySize=auto;html=1;exitX=0.5;exitY=1;exitDx=0;exitDy=0;entryX=0.5;entryY=0;entryDx=0;entryDy=0;" edge="1" parent="1" source="KR5ezrJEU1Oejk-ibgOq-26">
          <mxGeometry relative="1" as="geometry">
            <mxPoint x="340" y="690" as="targetPoint" />
          </mxGeometry>
        </mxCell>
        <mxCell id="KR5ezrJEU1Oejk-ibgOq-26" value="&lt;font style=&quot;font-size: 18px;&quot; face=&quot;Times New Roman&quot;&gt;Exploitation&amp;nbsp;&amp;nbsp;&lt;/font&gt;" style="whiteSpace=wrap;html=1;fillColor=#ffe6cc;strokeColor=#d79b00;rounded=1;" vertex="1" parent="1">
          <mxGeometry x="140" y="560" width="110" height="50" as="geometry" />
        </mxCell>
        <mxCell id="KR5ezrJEU1Oejk-ibgOq-37" style="edgeStyle=orthogonalEdgeStyle;rounded=0;orthogonalLoop=1;jettySize=auto;html=1;exitX=0.5;exitY=1;exitDx=0;exitDy=0;" edge="1" parent="1" source="KR5ezrJEU1Oejk-ibgOq-27">
          <mxGeometry relative="1" as="geometry">
            <mxPoint x="340" y="690" as="targetPoint" />
          </mxGeometry>
        </mxCell>
        <mxCell id="KR5ezrJEU1Oejk-ibgOq-27" value="&lt;font style=&quot;font-size: 18px;&quot; face=&quot;Times New Roman&quot;&gt;Exploration&lt;/font&gt;" style="whiteSpace=wrap;html=1;fillColor=#ffe6cc;strokeColor=#d79b00;rounded=1;" vertex="1" parent="1">
          <mxGeometry x="445" y="560" width="110" height="50" as="geometry" />
        </mxCell>
        <mxCell id="KR5ezrJEU1Oejk-ibgOq-33" value="&lt;font face=&quot;Times New Roman&quot; style=&quot;font-size: 18px;&quot;&gt;Yes&lt;/font&gt;" style="text;html=1;align=center;verticalAlign=middle;whiteSpace=wrap;rounded=0;" vertex="1" parent="1">
          <mxGeometry x="220" y="520" width="60" height="30" as="geometry" />
        </mxCell>
        <mxCell id="KR5ezrJEU1Oejk-ibgOq-34" value="&lt;font style=&quot;font-size: 18px;&quot; face=&quot;Times New Roman&quot;&gt;No&lt;/font&gt;" style="text;html=1;align=center;verticalAlign=middle;whiteSpace=wrap;rounded=0;" vertex="1" parent="1">
          <mxGeometry x="410" y="520" width="60" height="30" as="geometry" />
        </mxCell>
        <mxCell id="KR5ezrJEU1Oejk-ibgOq-49" value="" style="edgeStyle=orthogonalEdgeStyle;rounded=0;orthogonalLoop=1;jettySize=auto;html=1;" edge="1" parent="1" source="KR5ezrJEU1Oejk-ibgOq-43" target="KR5ezrJEU1Oejk-ibgOq-48">
          <mxGeometry relative="1" as="geometry" />
        </mxCell>
        <mxCell id="KR5ezrJEU1Oejk-ibgOq-43" value="&lt;span style=&quot;font-family: &amp;quot;Times New Roman&amp;quot;; font-size: 18px;&quot;&gt;Calculate&amp;nbsp; &amp;nbsp;Fitness&lt;/span&gt;&lt;font face=&quot;Times New Roman&quot;&gt;&lt;span style=&quot;font-size: 18px;&quot;&gt;&amp;nbsp;&amp;nbsp;&lt;/span&gt;&lt;/font&gt;&lt;span style=&quot;font-family: &amp;quot;Times New Roman&amp;quot;; font-size: 18px;&quot;&gt;&amp;nbsp; &amp;nbsp;&lt;/span&gt;" style="rounded=1;whiteSpace=wrap;html=1;fillColor=#ffe6cc;strokeColor=#d79b00;" vertex="1" parent="1">
          <mxGeometry x="285" y="250" width="120" height="60" as="geometry" />
        </mxCell>
        <mxCell id="KR5ezrJEU1Oejk-ibgOq-51" value="" style="edgeStyle=orthogonalEdgeStyle;rounded=0;orthogonalLoop=1;jettySize=auto;html=1;entryX=0.5;entryY=0.021;entryDx=0;entryDy=0;entryPerimeter=0;" edge="1" parent="1" source="KR5ezrJEU1Oejk-ibgOq-48" target="KR5ezrJEU1Oejk-ibgOq-19">
          <mxGeometry relative="1" as="geometry" />
        </mxCell>
        <mxCell id="KR5ezrJEU1Oejk-ibgOq-48" value="&lt;font face=&quot;Times New Roman&quot;&gt;&lt;span style=&quot;font-size: 18px;&quot;&gt;Sort By&amp;nbsp; &amp;nbsp; &amp;nbsp; Fitness&amp;nbsp;&amp;nbsp;&lt;/span&gt;&lt;/font&gt;&lt;span style=&quot;font-family: &amp;quot;Times New Roman&amp;quot;; font-size: 18px;&quot;&gt;&amp;nbsp; &amp;nbsp;&lt;/span&gt;" style="rounded=1;whiteSpace=wrap;html=1;fillColor=#ffe6cc;strokeColor=#d79b00;" vertex="1" parent="1">
          <mxGeometry x="285" y="340" width="120" height="60" as="geometry" />
        </mxCell>
        <mxCell id="KR5ezrJEU1Oejk-ibgOq-65" value="" style="edgeStyle=orthogonalEdgeStyle;rounded=0;orthogonalLoop=1;jettySize=auto;html=1;" edge="1" parent="1" source="KR5ezrJEU1Oejk-ibgOq-62" target="KR5ezrJEU1Oejk-ibgOq-63">
          <mxGeometry relative="1" as="geometry" />
        </mxCell>
        <mxCell id="KR5ezrJEU1Oejk-ibgOq-62" value="&lt;span style=&quot;font-family: &amp;quot;Times New Roman&amp;quot;; font-size: 18px;&quot;&gt;Cross&lt;/span&gt;" style="rounded=1;whiteSpace=wrap;html=1;fillColor=#ffe6cc;strokeColor=#d79b00;" vertex="1" parent="1">
          <mxGeometry x="280" y="690" width="120" height="60" as="geometry" />
        </mxCell>
        <mxCell id="KR5ezrJEU1Oejk-ibgOq-67" style="edgeStyle=orthogonalEdgeStyle;rounded=0;orthogonalLoop=1;jettySize=auto;html=1;exitX=0;exitY=0.5;exitDx=0;exitDy=0;entryX=0;entryY=0.5;entryDx=0;entryDy=0;" edge="1" parent="1" source="KR5ezrJEU1Oejk-ibgOq-63" target="KR5ezrJEU1Oejk-ibgOq-1">
          <mxGeometry relative="1" as="geometry">
            <Array as="points">
              <mxPoint x="110" y="720" />
              <mxPoint x="110" y="190" />
            </Array>
          </mxGeometry>
        </mxCell>
        <mxCell id="KR5ezrJEU1Oejk-ibgOq-63" value="&lt;span style=&quot;font-family: &amp;quot;Times New Roman&amp;quot;; font-size: 18px;&quot;&gt;Select&lt;/span&gt;" style="rounded=1;whiteSpace=wrap;html=1;fillColor=#ffe6cc;strokeColor=#d79b00;" vertex="1" parent="1">
          <mxGeometry x="130" y="690" width="120" height="60" as="geometry" />
        </mxCell>
        <mxCell id="KR5ezrJEU1Oejk-ibgOq-68" value="" style="rounded=1;whiteSpace=wrap;html=1;fillColor=none;strokeColor=#F5F5DC;shadow=1;strokeWidth=2;" vertex="1" parent="1">
          <mxGeometry x="435" y="160" width="145" height="300" as="geometry" />
        </mxCell>
      </root>
    </mxGraphModel>
  </diagram>
</mxfile>
